<?xml version="1.0" encoding="UTF-8" standalone="no"?>
<svg
   shape-rendering="geometricPrecision"
   text-rendering="geometricPrecision"
   image-rendering="optimizeQuality"
   fill-rule="evenodd"
   clip-rule="evenodd"
   viewBox="0 0 192 192"
   version="1.1"
   id="svg1"
   sodipodi:docname="connected-plug-icon.svg"
   width="192"
   height="192"
   inkscape:version="1.3.2 (091e20e, 2023-11-25, custom)"
   xmlns:inkscape="http://www.inkscape.org/namespaces/inkscape"
   xmlns:sodipodi="http://sodipodi.sourceforge.net/DTD/sodipodi-0.dtd"
   xmlns="http://www.w3.org/2000/svg"
   xmlns:svg="http://www.w3.org/2000/svg">
  <defs
     id="defs1" />
  <sodipodi:namedview
     id="namedview1"
     pagecolor="#ffffff"
     bordercolor="#000000"
     borderopacity="0.25"
     inkscape:showpageshadow="2"
     inkscape:pageopacity="0.0"
     inkscape:pagecheckerboard="0"
     inkscape:deskcolor="#d1d1d1"
     inkscape:zoom="0.99414062"
     inkscape:cx="255.49705"
     inkscape:cy="256"
     inkscape:window-width="1366"
     inkscape:window-height="705"
     inkscape:window-x="-8"
     inkscape:window-y="-8"
     inkscape:window-maximized="1"
     inkscape:current-layer="svg1" />
  <g
     id="g1"
     transform="matrix(0.37500315,0,0,0.37500315,0.0016944,0.00131315)">
    <circle
       fill="#01a437"
       transform="rotate(45)"
       r="255.99785"
       id="circle1"
       cx="362.03903"
       cy="-0.00043133512"
       style="stroke-width:3.28877" />
    <path
       fill="#ffffff"
       d="m 162.27,317.75 -30.92,30.65 39.62,39.61 31.29,-31.03 c 69.87,57.6 131.69,-3.38 177.78,-49.48 L 357.55,285 407.02,235.55 c 8.33,-8.33 8.33,-21.98 0,-30.32 -8.34,-8.34 -21.99,-8.33 -30.32,0 l -49.46,49.46 -63.1,-63.09 49.46,-49.47 c 8.34,-8.33 8.34,-21.98 0,-30.31 -8.34,-8.34 -21.98,-8.34 -30.32,0 l -49.46,49.46 -21.69,-21.7 c -47.36,47.36 -106.64,105.87 -49.86,178.17 z"
       id="path1" />
  </g>
</svg>
