<?xml version="1.0" encoding="UTF-8" standalone="no"?>
<svg
   shape-rendering="geometricPrecision"
   text-rendering="geometricPrecision"
   image-rendering="optimizeQuality"
   fill-rule="evenodd"
   clip-rule="evenodd"
   viewBox="0 0 192 192"
   version="1.1"
   id="svg1"
   sodipodi:docname="disconnect-plug-icon.svg"
   width="192"
   height="192"
   inkscape:version="1.3.2 (091e20e, 2023-11-25, custom)"
   xmlns:inkscape="http://www.inkscape.org/namespaces/inkscape"
   xmlns:sodipodi="http://sodipodi.sourceforge.net/DTD/sodipodi-0.dtd"
   xmlns="http://www.w3.org/2000/svg"
   xmlns:svg="http://www.w3.org/2000/svg">
  <defs
     id="defs1" />
  <sodipodi:namedview
     id="namedview1"
     pagecolor="#ffffff"
     bordercolor="#000000"
     borderopacity="0.25"
     inkscape:showpageshadow="2"
     inkscape:pageopacity="0.0"
     inkscape:pagecheckerboard="0"
     inkscape:deskcolor="#d1d1d1"
     inkscape:zoom="0.99414062"
     inkscape:cx="255.49705"
     inkscape:cy="256"
     inkscape:window-width="1366"
     inkscape:window-height="705"
     inkscape:window-x="-8"
     inkscape:window-y="-8"
     inkscape:window-maximized="1"
     inkscape:current-layer="svg1" />
  <g
     id="g2"
     transform="matrix(0.37500315,0,0,0.37500315,0.00170112,0.00131987)">
    <g
       id="g1">
      <circle
         fill="#ef4136"
         transform="matrix(2.3255116,2.3255116,-2.3255116,2.3255116,256.00057,255.99996)"
         r="77.839996"
         id="circle1"
         cx="0"
         cy="0" />
    </g>
    <path
       fill="#ffffff"
       d="m 162.03,311.94 -28.73,28.73 39.61,39.62 29.11,-29.12 c 30.83,25.41 60.09,27.74 87.12,18.45 L 143.65,224.13 c -9.12,26.74 -6.66,55.93 18.38,87.81 z M 130.57,161.83 c -6.42,-6.42 -6.42,-16.83 0,-23.25 6.42,-6.42 16.83,-6.42 23.25,0 l 27.22,27.22 c 9.99,-11.21 20.7,-21.87 30.85,-32.03 l 21.7,21.69 49.46,-49.45 c 8.33,-8.34 21.98,-8.34 30.32,0 8.33,8.33 8.33,21.98 0,30.31 l -49.47,49.47 63.1,63.09 49.46,-49.46 c 8.34,-8.34 21.98,-8.34 30.32,0 8.34,8.34 8.33,21.98 0,30.31 l -49.47,49.46 22.5,22.5 c -10,10 -20.74,20.7 -32.14,30.74 L 375,359.76 c 6.42,6.41 6.42,16.83 0,23.25 -6.42,6.41 -16.84,6.41 -23.25,0 z"
       id="path1" />
  </g>
</svg>
